# xmcd
#
# Track frame offsets:
#	150
#	16045
#	33977
#	50287
#	58912
#	72567
#	83802
#	98887
#	110925
#	122085
#	137460
#	153155
#	168005
#	185420
#	200335
#	213125
#	234990
#	248295
#	266650
#	280222
#
# Disc length: 3990 seconds
#
# Revision: 3
# Processed by: cddbd v1.5.2PL0 Copyright (c) Steve Scherf et al.
# Submitted via: EasyCDDAExtractor 12.1.0.1
#
DISCID=0a0f9414
DTITLE=Joe Dassin - 41 succès - disc 2
DYEAR=1989
DGENRE=Pop
TTITLE0=Le dernier slow
TTITLE1=Cécilia
TTITLE2=Comme la lune
TTITLE3=Katy cruel
TTITLE4=C'est la vie Lily
TTITLE5=Le chemin de papa
TTITLE6=Dans la brume du matin
TTITLE7=Le portugais
TTITLE8=Excuse me lady
TTITLE9=Le petit pain au chocolat
TTITLE10=Blue country
TTITLE11=Sorry
TTITLE12=Il était une fois nous deux
TTITLE13=Salut
TTITLE14=La bande à Bonnot
TTITLE15=Happy birthday
TTITLE16=Viens voir le loup
TTITLE17=Billy le bordelais
TTITLE18=Vade retro
TTITLE19=The guitar don't lie
EXTD=
EXTT0=
EXTT1=
EXTT2=
EXTT3=
EXTT4=
EXTT5=
EXTT6=
EXTT7=
EXTT8=
EXTT9=
EXTT10=
EXTT11=
EXTT12=
EXTT13=
EXTT14=
EXTT15=
EXTT16=
EXTT17=
EXTT18=
EXTT19=
PLAYORDER=
